<mxfile host="app.diagrams.net" modified="2024-07-18T08:35:59.673Z" agent="Mozilla/5.0 (Macintosh; Intel Mac OS X 10_15_7) AppleWebKit/537.36 (KHTML, like Gecko) Chrome/126.0.0.0 Safari/537.36" etag="-zUb7uVtEkovm-Pyv5wb" version="24.4.2" type="github">
  <diagram name="Page-1" id="Nf1RpnPwgRNKfogDVloG">
    <mxGraphModel dx="1004" dy="927" grid="1" gridSize="10" guides="1" tooltips="1" connect="1" arrows="1" fold="1" page="1" pageScale="1" pageWidth="827" pageHeight="1169" math="0" shadow="0">
      <root>
        <mxCell id="0" />
        <mxCell id="1" parent="0" />
        <mxCell id="HDFVZgqq2ro0WjzWRSOl-14" value="" style="whiteSpace=wrap;html=1;fillColor=#dae8fc;strokeColor=#6c8ebf;" vertex="1" parent="1">
          <mxGeometry x="144" y="198.5" width="560" height="250" as="geometry" />
        </mxCell>
        <mxCell id="HDFVZgqq2ro0WjzWRSOl-7" value="" style="sketch=0;points=[[0,0,0],[0.25,0,0],[0.5,0,0],[0.75,0,0],[1,0,0],[0,1,0],[0.25,1,0],[0.5,1,0],[0.75,1,0],[1,1,0],[0,0.25,0],[0,0.5,0],[0,0.75,0],[1,0.25,0],[1,0.5,0],[1,0.75,0]];outlineConnect=0;fontColor=#232F3E;fillColor=#E7157B;strokeColor=#ffffff;dashed=0;verticalLabelPosition=bottom;verticalAlign=top;align=center;html=1;fontSize=12;fontStyle=0;aspect=fixed;shape=mxgraph.aws4.resourceIcon;resIcon=mxgraph.aws4.eventbridge;" vertex="1" parent="1">
          <mxGeometry x="154" y="210.5" width="78" height="78" as="geometry" />
        </mxCell>
        <mxCell id="HDFVZgqq2ro0WjzWRSOl-12" value="" style="sketch=0;outlineConnect=0;fontColor=#232F3E;gradientColor=none;fillColor=#E7157B;strokeColor=none;dashed=0;verticalLabelPosition=bottom;verticalAlign=top;align=center;html=1;fontSize=12;fontStyle=0;aspect=fixed;pointerEvents=1;shape=mxgraph.aws4.eventbridge_default_event_bus_resource;" vertex="1" parent="1">
          <mxGeometry x="314.33" y="288.5" width="78" height="53" as="geometry" />
        </mxCell>
        <mxCell id="HDFVZgqq2ro0WjzWRSOl-15" value="" style="whiteSpace=wrap;html=1;fillColor=#dae8fc;strokeColor=#6c8ebf;" vertex="1" parent="1">
          <mxGeometry x="144" y="568.5" width="560" height="250" as="geometry" />
        </mxCell>
        <mxCell id="HDFVZgqq2ro0WjzWRSOl-10" value="" style="sketch=0;points=[[0,0,0],[0.25,0,0],[0.5,0,0],[0.75,0,0],[1,0,0],[0,1,0],[0.25,1,0],[0.5,1,0],[0.75,1,0],[1,1,0],[0,0.25,0],[0,0.5,0],[0,0.75,0],[1,0.25,0],[1,0.5,0],[1,0.75,0]];outlineConnect=0;fontColor=#232F3E;fillColor=#E7157B;strokeColor=#ffffff;dashed=0;verticalLabelPosition=bottom;verticalAlign=top;align=center;html=1;fontSize=12;fontStyle=0;aspect=fixed;shape=mxgraph.aws4.resourceIcon;resIcon=mxgraph.aws4.eventbridge;" vertex="1" parent="1">
          <mxGeometry x="154" y="575.5" width="78" height="78" as="geometry" />
        </mxCell>
        <mxCell id="HDFVZgqq2ro0WjzWRSOl-13" value="" style="sketch=0;outlineConnect=0;fontColor=#232F3E;gradientColor=none;fillColor=#E7157B;strokeColor=none;dashed=0;verticalLabelPosition=bottom;verticalAlign=top;align=center;html=1;fontSize=12;fontStyle=0;aspect=fixed;pointerEvents=1;shape=mxgraph.aws4.eventbridge_default_event_bus_resource;" vertex="1" parent="1">
          <mxGeometry x="290" y="667" width="78" height="53" as="geometry" />
        </mxCell>
        <mxCell id="HDFVZgqq2ro0WjzWRSOl-9" value="" style="sketch=0;outlineConnect=0;fontColor=#232F3E;gradientColor=none;fillColor=#E7157B;strokeColor=none;dashed=0;verticalLabelPosition=bottom;verticalAlign=top;align=center;html=1;fontSize=12;fontStyle=0;aspect=fixed;pointerEvents=1;shape=mxgraph.aws4.eventbridge_custom_event_bus_resource;" vertex="1" parent="1">
          <mxGeometry x="484" y="667" width="75" height="66.35" as="geometry" />
        </mxCell>
        <mxCell id="HDFVZgqq2ro0WjzWRSOl-16" value="" style="sketch=0;outlineConnect=0;fontColor=#232F3E;gradientColor=none;fillColor=#E7157B;strokeColor=none;dashed=0;verticalLabelPosition=bottom;verticalAlign=top;align=center;html=1;fontSize=12;fontStyle=0;aspect=fixed;pointerEvents=1;shape=mxgraph.aws4.rule_3;" vertex="1" parent="1">
          <mxGeometry x="420" y="341.5" width="45.88" height="40" as="geometry" />
        </mxCell>
        <mxCell id="HDFVZgqq2ro0WjzWRSOl-17" value="" style="sketch=0;outlineConnect=0;fontColor=#232F3E;gradientColor=none;fillColor=#E7157B;strokeColor=none;dashed=0;verticalLabelPosition=bottom;verticalAlign=top;align=center;html=1;fontSize=12;fontStyle=0;aspect=fixed;pointerEvents=1;shape=mxgraph.aws4.rule_3;" vertex="1" parent="1">
          <mxGeometry x="368" y="720" width="45.88" height="40" as="geometry" />
        </mxCell>
        <mxCell id="HDFVZgqq2ro0WjzWRSOl-18" value="" style="sketch=0;outlineConnect=0;fontColor=#232F3E;gradientColor=none;fillColor=#E7157B;strokeColor=none;dashed=0;verticalLabelPosition=bottom;verticalAlign=top;align=center;html=1;fontSize=12;fontStyle=0;aspect=fixed;pointerEvents=1;shape=mxgraph.aws4.rule_3;" vertex="1" parent="1">
          <mxGeometry x="559" y="720" width="45.88" height="40" as="geometry" />
        </mxCell>
        <mxCell id="HDFVZgqq2ro0WjzWRSOl-20" value="" style="shape=waypoint;sketch=0;size=6;pointerEvents=1;points=[];fillColor=#E7157B;resizable=0;rotatable=0;perimeter=centerPerimeter;snapToPoint=1;verticalAlign=top;strokeColor=none;fontColor=#232F3E;gradientColor=none;dashed=0;fontStyle=0;" vertex="1" parent="1">
          <mxGeometry x="544" y="643.5" width="20" height="20" as="geometry" />
        </mxCell>
        <mxCell id="HDFVZgqq2ro0WjzWRSOl-25" value="" style="edgeStyle=orthogonalEdgeStyle;html=1;endArrow=block;elbow=vertical;startArrow=none;endFill=1;strokeColor=#545B64;rounded=0;" edge="1" parent="1" source="HDFVZgqq2ro0WjzWRSOl-12" target="HDFVZgqq2ro0WjzWRSOl-16">
          <mxGeometry width="100" relative="1" as="geometry">
            <mxPoint x="484" y="314.5" as="sourcePoint" />
            <mxPoint x="584" y="314.5" as="targetPoint" />
          </mxGeometry>
        </mxCell>
        <mxCell id="HDFVZgqq2ro0WjzWRSOl-26" value="" style="edgeStyle=orthogonalEdgeStyle;html=1;endArrow=block;elbow=vertical;startArrow=none;endFill=1;strokeColor=#000000;rounded=0;" edge="1" parent="1">
          <mxGeometry width="100" relative="1" as="geometry">
            <mxPoint x="474" y="358.5" as="sourcePoint" />
            <mxPoint x="514" y="663.5" as="targetPoint" />
            <Array as="points">
              <mxPoint x="474" y="358.5" />
              <mxPoint x="514" y="358.5" />
            </Array>
          </mxGeometry>
        </mxCell>
        <mxCell id="HDFVZgqq2ro0WjzWRSOl-28" value="" style="edgeStyle=orthogonalEdgeStyle;html=1;endArrow=block;elbow=vertical;startArrow=none;endFill=1;strokeColor=#545B64;rounded=0;" edge="1" parent="1" target="HDFVZgqq2ro0WjzWRSOl-17">
          <mxGeometry width="100" relative="1" as="geometry">
            <mxPoint x="365.88" y="693" as="sourcePoint" />
            <mxPoint x="465.88" y="693" as="targetPoint" />
          </mxGeometry>
        </mxCell>
        <mxCell id="HDFVZgqq2ro0WjzWRSOl-29" value="" style="edgeStyle=orthogonalEdgeStyle;html=1;endArrow=block;elbow=vertical;startArrow=none;endFill=1;strokeColor=#545B64;rounded=0;" edge="1" parent="1">
          <mxGeometry width="100" relative="1" as="geometry">
            <mxPoint x="559" y="692.5" as="sourcePoint" />
            <mxPoint x="584.12" y="720" as="targetPoint" />
          </mxGeometry>
        </mxCell>
        <mxCell id="HDFVZgqq2ro0WjzWRSOl-31" value="" style="edgeStyle=orthogonalEdgeStyle;html=1;endArrow=block;elbow=vertical;startArrow=none;endFill=1;strokeColor=#545B64;rounded=0;" edge="1" parent="1">
          <mxGeometry width="100" relative="1" as="geometry">
            <mxPoint x="420.0000000000001" y="739.9000000000001" as="sourcePoint" />
            <mxPoint x="474" y="700.5" as="targetPoint" />
            <Array as="points">
              <mxPoint x="444" y="739.5" />
              <mxPoint x="444" y="700.5" />
            </Array>
          </mxGeometry>
        </mxCell>
        <mxCell id="HDFVZgqq2ro0WjzWRSOl-34" value="" style="html=1;strokeWidth=1;shadow=0;dashed=0;shape=mxgraph.ios7.misc.notification;fillColor=#FF3B2F;strokeColor=none;buttonText=;strokeColor2=#222222;fontColor=#222222;fontSize=8;verticalLabelPosition=bottom;verticalAlign=top;align=center;sketch=0;" vertex="1" parent="1">
          <mxGeometry x="614" y="238.5" width="39.56" height="40" as="geometry" />
        </mxCell>
        <mxCell id="HDFVZgqq2ro0WjzWRSOl-35" value="" style="endArrow=classic;html=1;rounded=0;strokeColor=#424242;" edge="1" parent="1" source="HDFVZgqq2ro0WjzWRSOl-34" target="HDFVZgqq2ro0WjzWRSOl-12">
          <mxGeometry relative="1" as="geometry">
            <mxPoint x="414" y="268.5" as="sourcePoint" />
            <mxPoint x="514" y="268.5" as="targetPoint" />
            <Array as="points">
              <mxPoint x="353" y="258.5" />
            </Array>
          </mxGeometry>
        </mxCell>
        <mxCell id="HDFVZgqq2ro0WjzWRSOl-36" value="" style="shape=message;html=1;outlineConnect=0;" vertex="1" parent="HDFVZgqq2ro0WjzWRSOl-35">
          <mxGeometry width="20" height="14" relative="1" as="geometry">
            <mxPoint x="-10" y="-7" as="offset" />
          </mxGeometry>
        </mxCell>
        <mxCell id="HDFVZgqq2ro0WjzWRSOl-38" value="" style="html=1;strokeWidth=1;shadow=0;dashed=0;shape=mxgraph.ios7.misc.notification;fillColor=#FF3B2F;strokeColor=none;buttonText=;strokeColor2=#222222;fontColor=#222222;fontSize=8;verticalLabelPosition=bottom;verticalAlign=top;align=center;sketch=0;direction=south;" vertex="1" parent="1">
          <mxGeometry x="173.00000000000003" y="733.35" width="40" height="39.56" as="geometry" />
        </mxCell>
        <mxCell id="HDFVZgqq2ro0WjzWRSOl-39" value="" style="endArrow=classic;html=1;rounded=0;strokeColor=#424242;exitX=0.13;exitY=0.475;exitDx=0;exitDy=0;exitPerimeter=0;" edge="1" parent="1" source="HDFVZgqq2ro0WjzWRSOl-38" target="HDFVZgqq2ro0WjzWRSOl-13">
          <mxGeometry relative="1" as="geometry">
            <mxPoint x="212.77999999999997" y="730" as="sourcePoint" />
            <mxPoint x="-20.220000000000027" y="760" as="targetPoint" />
            <Array as="points">
              <mxPoint x="194" y="708.5" />
              <mxPoint x="244" y="708.5" />
              <mxPoint x="274" y="708.5" />
            </Array>
          </mxGeometry>
        </mxCell>
        <mxCell id="HDFVZgqq2ro0WjzWRSOl-40" value="" style="shape=message;html=1;outlineConnect=0;" vertex="1" parent="HDFVZgqq2ro0WjzWRSOl-39">
          <mxGeometry width="20" height="14" relative="1" as="geometry">
            <mxPoint x="-10" y="-7" as="offset" />
          </mxGeometry>
        </mxCell>
        <mxCell id="HDFVZgqq2ro0WjzWRSOl-41" value="&lt;p style=&quot;line-height: 100%;&quot;&gt;&lt;font style=&quot;font-size: 11px;&quot;&gt;RJ Event Bridge&lt;/font&gt;&lt;/p&gt;" style="text;strokeColor=none;align=center;fillColor=none;html=1;verticalAlign=middle;whiteSpace=wrap;rounded=0;" vertex="1" parent="1">
          <mxGeometry x="144" y="288.5" width="101.22" height="30" as="geometry" />
        </mxCell>
        <mxCell id="HDFVZgqq2ro0WjzWRSOl-42" value="&lt;p style=&quot;line-height: 100%;&quot;&gt;&lt;font style=&quot;font-size: 11px;&quot;&gt;PHD&lt;br&gt;Notifications&lt;/font&gt;&lt;/p&gt;" style="text;strokeColor=none;align=center;fillColor=none;html=1;verticalAlign=middle;whiteSpace=wrap;rounded=0;" vertex="1" parent="1">
          <mxGeometry x="583.1700000000001" y="278.5" width="101.22" height="30" as="geometry" />
        </mxCell>
        <mxCell id="HDFVZgqq2ro0WjzWRSOl-43" value="&lt;p style=&quot;line-height: 100%;&quot;&gt;&lt;font style=&quot;font-size: 11px;&quot;&gt;PHD&lt;br&gt;Notifications&lt;/font&gt;&lt;/p&gt;" style="text;strokeColor=none;align=center;fillColor=none;html=1;verticalAlign=middle;whiteSpace=wrap;rounded=0;" vertex="1" parent="1">
          <mxGeometry x="142.39000000000004" y="772.91" width="101.22" height="30" as="geometry" />
        </mxCell>
        <mxCell id="HDFVZgqq2ro0WjzWRSOl-46" value="&lt;p style=&quot;line-height: 100%;&quot;&gt;&lt;font style=&quot;font-size: 11px;&quot;&gt;ROCK&lt;br&gt;&amp;nbsp;Event Bridge&lt;/font&gt;&lt;/p&gt;" style="text;strokeColor=none;align=center;fillColor=none;html=1;verticalAlign=middle;whiteSpace=wrap;rounded=0;" vertex="1" parent="1">
          <mxGeometry x="144" y="653.5" width="101.22" height="30" as="geometry" />
        </mxCell>
        <mxCell id="HDFVZgqq2ro0WjzWRSOl-47" value="&lt;p style=&quot;line-height: 100%;&quot;&gt;&lt;font style=&quot;font-size: 11px;&quot;&gt;Default&lt;br&gt;Event Bus&lt;/font&gt;&lt;/p&gt;" style="text;strokeColor=none;align=center;fillColor=none;html=1;verticalAlign=middle;whiteSpace=wrap;rounded=0;" vertex="1" parent="1">
          <mxGeometry x="306" y="346.5" width="101.22" height="30" as="geometry" />
        </mxCell>
        <mxCell id="HDFVZgqq2ro0WjzWRSOl-49" value="&lt;p style=&quot;line-height: 100%;&quot;&gt;&lt;font style=&quot;font-size: 11px;&quot;&gt;Custom&lt;br&gt;Event Bus&lt;/font&gt;&lt;/p&gt;" style="text;strokeColor=none;align=center;fillColor=none;html=1;verticalAlign=middle;whiteSpace=wrap;rounded=0;" vertex="1" parent="1">
          <mxGeometry x="462.78" y="733.35" width="101.22" height="30" as="geometry" />
        </mxCell>
        <mxCell id="HDFVZgqq2ro0WjzWRSOl-50" value="&lt;p style=&quot;line-height: 100%;&quot;&gt;&lt;font style=&quot;font-size: 11px;&quot;&gt;Default&lt;br&gt;Event Bus&lt;/font&gt;&lt;/p&gt;" style="text;strokeColor=none;align=center;fillColor=none;html=1;verticalAlign=middle;whiteSpace=wrap;rounded=0;" vertex="1" parent="1">
          <mxGeometry x="278.39" y="725" width="101.22" height="30" as="geometry" />
        </mxCell>
        <mxCell id="HDFVZgqq2ro0WjzWRSOl-55" value="&lt;p style=&quot;line-height: 100%; font-size: 9px;&quot;&gt;&lt;span style=&quot;&quot;&gt;PHD &lt;/span&gt;&lt;br&gt;&lt;font style=&quot;font-size: 9px;&quot;&gt;Capture Rule&lt;/font&gt;&lt;/p&gt;" style="text;strokeColor=none;align=center;fillColor=none;html=1;verticalAlign=middle;whiteSpace=wrap;rounded=0;" vertex="1" parent="1">
          <mxGeometry x="392.33" y="381.5" width="101.22" height="30" as="geometry" />
        </mxCell>
        <mxCell id="HDFVZgqq2ro0WjzWRSOl-56" value="&lt;p style=&quot;line-height: 100%; font-size: 9px;&quot;&gt;&lt;span style=&quot;&quot;&gt;PHD &lt;/span&gt;&lt;br&gt;&lt;font style=&quot;font-size: 9px;&quot;&gt;Capture Rule&lt;/font&gt;&lt;/p&gt;" style="text;strokeColor=none;align=center;fillColor=none;html=1;verticalAlign=middle;whiteSpace=wrap;rounded=0;" vertex="1" parent="1">
          <mxGeometry x="340.33" y="760" width="101.22" height="30" as="geometry" />
        </mxCell>
        <mxCell id="HDFVZgqq2ro0WjzWRSOl-60" value="" style="edgeStyle=orthogonalEdgeStyle;rounded=0;orthogonalLoop=1;jettySize=auto;html=1;entryX=0.5;entryY=0;entryDx=0;entryDy=0;entryPerimeter=0;strokeColor=#4F4F4F;" edge="1" parent="1" source="HDFVZgqq2ro0WjzWRSOl-57" target="HDFVZgqq2ro0WjzWRSOl-6">
          <mxGeometry relative="1" as="geometry">
            <mxPoint x="581.9399999999998" y="873.3499999999999" as="targetPoint" />
            <Array as="points">
              <mxPoint x="582" y="838.5" />
              <mxPoint x="505" y="838.5" />
            </Array>
          </mxGeometry>
        </mxCell>
        <mxCell id="HDFVZgqq2ro0WjzWRSOl-57" value="&lt;p style=&quot;line-height: 100%; font-size: 9px;&quot;&gt;&lt;span style=&quot;&quot;&gt;PHD &lt;/span&gt;&lt;br&gt;&lt;font style=&quot;font-size: 9px;&quot;&gt;Capture Rule&lt;/font&gt;&lt;/p&gt;" style="text;strokeColor=none;align=center;fillColor=none;html=1;verticalAlign=middle;whiteSpace=wrap;rounded=0;" vertex="1" parent="1">
          <mxGeometry x="531.3299999999999" y="763.35" width="101.22" height="30" as="geometry" />
        </mxCell>
        <mxCell id="HDFVZgqq2ro0WjzWRSOl-62" value="RJ Account" style="points=[[0,0],[0.25,0],[0.5,0],[0.75,0],[1,0],[1,0.25],[1,0.5],[1,0.75],[1,1],[0.75,1],[0.5,1],[0.25,1],[0,1],[0,0.75],[0,0.5],[0,0.25]];outlineConnect=0;gradientColor=none;html=1;whiteSpace=wrap;fontSize=12;fontStyle=0;container=1;pointerEvents=0;collapsible=0;recursiveResize=0;shape=mxgraph.aws4.group;grIcon=mxgraph.aws4.group_account;strokeColor=#CD2264;fillColor=none;verticalAlign=top;align=left;spacingLeft=30;fontColor=#CD2264;dashed=0;" vertex="1" parent="1">
          <mxGeometry x="84" y="150" width="680" height="330" as="geometry" />
        </mxCell>
        <mxCell id="HDFVZgqq2ro0WjzWRSOl-65" value="" style="edgeStyle=orthogonalEdgeStyle;rounded=0;orthogonalLoop=1;jettySize=auto;html=1;exitX=0.5;exitY=1;exitDx=0;exitDy=0;" edge="1" parent="1" source="HDFVZgqq2ro0WjzWRSOl-61" target="HDFVZgqq2ro0WjzWRSOl-64">
          <mxGeometry relative="1" as="geometry">
            <Array as="points">
              <mxPoint x="505" y="1000" />
              <mxPoint x="64" y="1000" />
              <mxPoint x="64" y="1129" />
            </Array>
          </mxGeometry>
        </mxCell>
        <mxCell id="HDFVZgqq2ro0WjzWRSOl-63" value="ROCK Account" style="points=[[0,0],[0.25,0],[0.5,0],[0.75,0],[1,0],[1,0.25],[1,0.5],[1,0.75],[1,1],[0.75,1],[0.5,1],[0.25,1],[0,1],[0,0.75],[0,0.5],[0,0.25]];outlineConnect=0;gradientColor=none;html=1;whiteSpace=wrap;fontSize=12;fontStyle=0;container=1;pointerEvents=0;collapsible=0;recursiveResize=0;shape=mxgraph.aws4.group;grIcon=mxgraph.aws4.group_account;strokeColor=#CD2264;fillColor=none;verticalAlign=top;align=left;spacingLeft=30;fontColor=#CD2264;dashed=0;" vertex="1" parent="1">
          <mxGeometry x="84" y="518.5" width="680" height="450" as="geometry" />
        </mxCell>
        <mxCell id="HDFVZgqq2ro0WjzWRSOl-6" value="" style="sketch=0;points=[[0,0,0],[0.25,0,0],[0.5,0,0],[0.75,0,0],[1,0,0],[0,1,0],[0.25,1,0],[0.5,1,0],[0.75,1,0],[1,1,0],[0,0.25,0],[0,0.5,0],[0,0.75,0],[1,0.25,0],[1,0.5,0],[1,0.75,0]];outlineConnect=0;fontColor=#232F3E;fillColor=#ED7100;strokeColor=#ffffff;dashed=0;verticalLabelPosition=bottom;verticalAlign=top;align=center;html=1;fontSize=12;fontStyle=0;aspect=fixed;shape=mxgraph.aws4.resourceIcon;resIcon=mxgraph.aws4.lambda;" vertex="1" parent="HDFVZgqq2ro0WjzWRSOl-63">
          <mxGeometry x="386.11" y="340" width="69" height="69" as="geometry" />
        </mxCell>
        <mxCell id="HDFVZgqq2ro0WjzWRSOl-61" value="&lt;p style=&quot;line-height: 100%;&quot;&gt;&lt;span style=&quot;font-size: 11px;&quot;&gt;Events Handler Lambda&lt;/span&gt;&lt;/p&gt;" style="text;strokeColor=none;align=center;fillColor=none;html=1;verticalAlign=middle;whiteSpace=wrap;rounded=0;" vertex="1" parent="HDFVZgqq2ro0WjzWRSOl-63">
          <mxGeometry x="370" y="409" width="101.22" height="30" as="geometry" />
        </mxCell>
        <mxCell id="HDFVZgqq2ro0WjzWRSOl-66" value="" style="outlineConnect=0;dashed=0;verticalLabelPosition=bottom;verticalAlign=top;align=center;html=1;shape=mxgraph.aws3.android;fillColor=#FFD44F;gradientColor=none;" vertex="1" parent="HDFVZgqq2ro0WjzWRSOl-63">
          <mxGeometry x="170" y="337.5" width="63.5" height="74" as="geometry" />
        </mxCell>
        <mxCell id="HDFVZgqq2ro0WjzWRSOl-68" value="&lt;p style=&quot;line-height: 100%; font-size: 9px;&quot;&gt;Boto Resource Tags Retrieve&lt;/p&gt;" style="text;strokeColor=none;align=center;fillColor=none;html=1;verticalAlign=middle;whiteSpace=wrap;rounded=0;" vertex="1" parent="HDFVZgqq2ro0WjzWRSOl-63">
          <mxGeometry x="151.14" y="411.5" width="101.22" height="30" as="geometry" />
        </mxCell>
        <mxCell id="HDFVZgqq2ro0WjzWRSOl-69" value="" style="edgeStyle=orthogonalEdgeStyle;html=1;endArrow=block;elbow=vertical;startArrow=block;startFill=1;endFill=1;strokeColor=#545B64;rounded=0;entryX=0;entryY=0.5;entryDx=0;entryDy=0;entryPerimeter=0;exitX=1;exitY=0.5;exitDx=0;exitDy=0;exitPerimeter=0;" edge="1" parent="HDFVZgqq2ro0WjzWRSOl-63" source="HDFVZgqq2ro0WjzWRSOl-66" target="HDFVZgqq2ro0WjzWRSOl-6">
          <mxGeometry width="100" relative="1" as="geometry">
            <mxPoint x="252.36" y="380" as="sourcePoint" />
            <mxPoint x="352.36" y="380" as="targetPoint" />
            <Array as="points">
              <mxPoint x="234" y="375" />
              <mxPoint x="352" y="375" />
            </Array>
          </mxGeometry>
        </mxCell>
        <mxCell id="HDFVZgqq2ro0WjzWRSOl-64" value="" style="whiteSpace=wrap;html=1;fillColor=#dae8fc;strokeColor=#6c8ebf;" vertex="1" parent="1">
          <mxGeometry x="84" y="1040" width="680" height="220" as="geometry" />
        </mxCell>
        <mxCell id="HDFVZgqq2ro0WjzWRSOl-70" value="&lt;font style=&quot;font-size: 10px;&quot;&gt;INITIATED&lt;/font&gt;" style="whiteSpace=wrap;html=1;fillColor=#e1d5e7;strokeColor=#9673a6;" vertex="1" parent="1">
          <mxGeometry x="123.36000000000001" y="1100" width="120" height="130" as="geometry" />
        </mxCell>
        <mxCell id="HDFVZgqq2ro0WjzWRSOl-71" value="&lt;font style=&quot;font-size: 10px;&quot;&gt;RESOURCE&lt;br&gt;OWNER&lt;br&gt;ACK&lt;/font&gt;" style="whiteSpace=wrap;html=1;fillColor=#e1d5e7;strokeColor=#9673a6;" vertex="1" parent="1">
          <mxGeometry x="286.96999999999997" y="1100" width="120" height="130" as="geometry" />
        </mxCell>
        <mxCell id="HDFVZgqq2ro0WjzWRSOl-72" value="&lt;font style=&quot;font-size: 10px;&quot;&gt;SYSENGG VERIFIED&lt;/font&gt;" style="whiteSpace=wrap;html=1;fillColor=#e1d5e7;strokeColor=#9673a6;" vertex="1" parent="1">
          <mxGeometry x="443.75000000000006" y="1100" width="120" height="130" as="geometry" />
        </mxCell>
        <mxCell id="HDFVZgqq2ro0WjzWRSOl-73" value="&lt;font style=&quot;font-size: 10px;&quot;&gt;CLOSED&lt;/font&gt;" style="whiteSpace=wrap;html=1;fillColor=#e1d5e7;strokeColor=#9673a6;" vertex="1" parent="1">
          <mxGeometry x="604.63" y="1100" width="120" height="130" as="geometry" />
        </mxCell>
        <mxCell id="HDFVZgqq2ro0WjzWRSOl-74" value="&lt;div style=&quot;&quot;&gt;&lt;span style=&quot;background-color: initial;&quot;&gt;Ticket Life Cycle&lt;/span&gt;&lt;br&gt;&lt;/div&gt;" style="text;strokeColor=none;align=left;fillColor=none;html=1;verticalAlign=middle;whiteSpace=wrap;rounded=0;" vertex="1" parent="1">
          <mxGeometry x="122.33" y="1050" width="270" height="30" as="geometry" />
        </mxCell>
        <mxCell id="HDFVZgqq2ro0WjzWRSOl-78" value="&lt;p style=&quot;line-height: 100%;&quot;&gt;&lt;font size=&quot;1&quot; style=&quot;&quot;&gt;&lt;b style=&quot;font-size: 20px;&quot;&gt;PHD Incident Management&lt;/b&gt;&lt;/font&gt;&lt;/p&gt;" style="text;strokeColor=none;align=center;fillColor=none;html=1;verticalAlign=middle;whiteSpace=wrap;rounded=0;" vertex="1" parent="1">
          <mxGeometry x="265" y="80" width="297.22" height="30" as="geometry" />
        </mxCell>
      </root>
    </mxGraphModel>
  </diagram>
</mxfile>
